# xmcd
#
# Track frame offsets: 
#        150
#        25192
#        36964
#        52508
#        80004
#        98213
#        111792
#        133066
#        145438
#        163725
#        190254
#        212213
#        228203
#        254166
#        280878
#        302492
#        322395
#
# Disc length: 4589 seconds
#
# Revision: 1
# Processed by: cddbd v1.5.2PL0 Copyright (c) Steve Scherf et al.
# Submitted via: ExactAudioCopy v0.99pb5
#
DISCID=fa11eb11
DTITLE=Pete Townshend - The Definitive Collection
DYEAR=2007
DGENRE=Rock
TTITLE0=Pure and Easy
TTITLE1=Sheraton Gibson
TTITLE2=Time Is Passing
TTITLE3=Street In The City
TTITLE4=My Baby Gives It Away
TTITLE5=Misunderstood
TTITLE6=Little Is Enough
TTITLE7=Let My Love Open The Door
TTITLE8=Rough Boys
TTITLE9=Sea Refuses No River
TTITLE10=Slit Skirts
TTITLE11=Mary
TTITLE12=Give Blood
TTITLE13=Face The Face
TTITLE14=Friend Is A Friend
TTITLE15=I Am Afraid
TTITLE16=English Boy
EXTD=
EXTT0=
EXTT1=
EXTT2=
EXTT3=
EXTT4=
EXTT5=
EXTT6=
EXTT7=
EXTT8=
EXTT9=
EXTT10=
EXTT11=
EXTT12=
EXTT13=
EXTT14=
EXTT15=
EXTT16=
PLAYORDER=
